HIERARCHY
ROOT Hips
{
	OFFSET 0.00 0.00 0.00
	CHANNELS 6 Xposition Yposition Zposition Xrotation Yrotation Zrotation
	JOINT Spine
	{
		OFFSET 0.00000 7.06766 0.00000
		CHANNELS 3 Xrotation Yrotation Zrotation
		JOINT Head
		{
			OFFSET 0.00000 15.03989 0.00000
			CHANNELS 3 Xrotation Yrotation Zrotation
			End Site
			{
				OFFSET 0.00000 4.52755 0.00000
			}
		}
		JOINT LeftShoulder
		{
			OFFSET 0.00000 10.53037 0.00000
			CHANNELS 3 Xrotation Yrotation Zrotation
			JOINT LeftArm
			{
				OFFSET 7.02886 0.00000 0.00000
				CHANNELS 3 Xrotation Yrotation Zrotation
				JOINT LeftForeArm
				{
					OFFSET 10.79770 0.00000 0.00000
					CHANNELS 3 Yrotation Zrotation Xrotation
					JOINT LeftHand
					{
						OFFSET 7.90744 0.00000 0.00000
						CHANNELS 3 Xrotation Yrotation Zrotation
						JOINT LeftHandThumb1
						{
							OFFSET 0.00000 0.00000 0.00000
							CHANNELS 3 Xrotation Zrotation Yrotation
							End Site
							{
								OFFSET 0.00000 0.00000 3.93700
							}
						}
						End Site
						{
							OFFSET 3.93700 0.00000 0.00000
						}
					}
				}
			}
		}
		JOINT RightShoulder
		{
			OFFSET 0.00000 10.53037 0.00000
			CHANNELS 3 Xrotation Yrotation Zrotation
			JOINT RightArm
			{
				OFFSET -7.02886 0.00000 0.00000
				CHANNELS 3 Xrotation Yrotation Zrotation
				JOINT RightForeArm
				{
					OFFSET -10.79770 0.00000 0.00000
					CHANNELS 3 Yrotation Zrotation Xrotation
					JOINT RightHand
					{
						OFFSET -7.90744 0.00000 0.00000
						CHANNELS 3 Xrotation Yrotation Zrotation
						JOINT RightHandThumb1
						{
							OFFSET 0.00000 0.00000 0.00000
							CHANNELS 3 Xrotation Zrotation Yrotation
							End Site
							{
								OFFSET 0.00000 0.00000 3.93700
							}
						}
						End Site
						{
							OFFSET -3.93700 0.00000 0.00000
						}
					}
				}
			}
		}
	}
	JOINT LeftUpLeg
	{
		OFFSET 4.01300 0.00000 0.00000
		CHANNELS 3 Xrotation Yrotation Zrotation
		JOINT LeftLeg
		{
			OFFSET 0.00000 -16.89976 0.00000
			CHANNELS 3 Xrotation Yrotation Zrotation
			JOINT LeftFoot
			{
				OFFSET 0.00000 -17.38918 0.00000
				CHANNELS 3 Xrotation Yrotation Zrotation
				JOINT LeftToeBase
				{
					OFFSET 0.00000 -1.27456 4.75673
					CHANNELS 3 Xrotation Yrotation Zrotation
					End Site
					{
						OFFSET 0.00000 0.00000 2.95275
					}
				}
			}
		}
	}
	JOINT RightUpLeg
	{
		OFFSET -4.01300 0.00000 0.00000
		CHANNELS 3 Xrotation Yrotation Zrotation
		JOINT RightLeg
		{
			OFFSET 0.00000 -16.89976 0.00000
			CHANNELS 3 Xrotation Yrotation Zrotation
			JOINT RightFoot
			{
				OFFSET 0.00000 -17.38918 0.00000
				CHANNELS 3 Xrotation Yrotation Zrotation
				JOINT RightToeBase
				{
					OFFSET 0.00000 -1.27456 4.75673
					CHANNELS 3 Xrotation Yrotation Zrotation
					End Site
					{
						OFFSET 0.00000 0.00000 2.95275
					}
				}
			}
		}
	}
}
MOTION
Frames: 15
Frame Time: 0.008333
 17.6987 35.2706 -23.9081 -106.2586 83.0444 105.6210 -1.1805 -2.1384 -1.3541 2.6466 -1.0261 1.3821 -34.5623 3.2302 19.4857 0.2280 -7.1011 -5.6300 2.8322 0.0000 9.2886 0.1604 9.5301 -0.9686 33.1476 -0.0000 26.2537 3.8614 -14.9779 -8.6823 -38.5146 3.5222 8.1242 6.1498 -0.0000 35.5907 0.9349 -8.3654 6.4003 32.8623 0.0000 -24.3270 18.6599 6.7350 -2.0953 -7.0345 -0.0000 -0.0000 -20.5189 26.4592 8.0955 23.9332 -0.0000 0.0000 17.2399 -9.1297 1.6646 -4.1368 0.0000 -0.0000 -20.8923 -25.4320 -4.7813 24.7429 0.0000 -0.0000
 17.6976 35.2704 -23.9063 -106.1319 82.9898 105.4963 -1.0983 -2.1264 -1.3628 2.6110 -1.0395 1.3857 -34.5546 3.2080 19.4894 0.2202 -7.0575 -5.6280 2.8201 0.0000 9.2684 0.1549 9.5154 -0.9372 33.1476 -0.0000 26.2537 3.8528 -14.9718 -8.6898 -38.5402 3.4871 8.1202 6.1336 -0.0000 35.6040 0.9330 -8.3547 6.3951 32.8623 0.0000 -24.3270 18.7194 6.7605 -2.0946 -7.0423 -0.0000 0.0000 -20.5107 26.4367 8.0662 23.9412 0.0000 0.0000 17.3002 -9.1647 1.6680 -4.1456 -0.0000 0.0000 -20.8852 -25.3891 -4.7815 24.7043 0.0000 0.0000
 17.6939 35.2708 -23.9051 -106.0446 82.9894 105.4033 -1.0857 -2.1236 -1.3541 2.6049 -1.0375 1.3722 -34.5639 3.2082 19.4925 0.2252 -7.0341 -5.6231 2.8370 0.0000 9.2534 0.1515 9.4954 -0.9183 33.1476 -0.0000 26.2537 3.8225 -14.9498 -8.6988 -38.5045 3.4818 8.0960 6.0865 -0.0000 35.5688 0.9196 -8.2732 6.3648 32.8623 0.0000 -24.3270 18.7186 6.7789 -2.0909 -7.0461 0.0000 -0.0000 -20.5042 26.4324 8.0758 23.9335 -0.0000 0.0000 17.2974 -9.1448 1.6715 -4.1474 0.0000 0.0000 -20.8800 -25.3979 -4.7625 24.7224 -0.0000 0.0000
 17.6878 35.2721 -23.9028 -106.1071 83.0305 105.4564 -1.1370 -2.1048 -1.3473 2.6254 -1.0480 1.3620 -34.5409 3.1918 19.4810 0.2115 -7.0002 -5.6121 2.8336 0.0000 9.2773 0.1516 9.4967 -0.9189 33.1476 -0.0000 26.2537 3.8384 -14.9580 -8.7025 -38.5455 3.4576 8.0957 6.0800 -0.0000 35.5844 0.9173 -8.2677 6.3536 32.8623 0.0000 -24.3270 18.6615 6.7790 -2.0796 -7.0361 0.0000 0.0000 -20.5098 26.4341 8.0984 23.9395 -0.0000 -0.0000 17.2417 -9.1378 1.6822 -4.1368 -0.0000 0.0000 -20.8635 -25.3989 -4.7468 24.8451 0.0000 -0.0000
 17.6834 35.2728 -23.9014 -106.0341 83.0293 105.3822 -1.1237 -2.1023 -1.3481 2.6150 -1.0415 1.3551 -34.5364 3.1948 19.4822 0.2018 -6.9767 -5.5984 2.8418 0.0000 9.2656 0.1574 9.4777 -0.9555 33.1476 -0.0000 26.2537 3.7975 -14.9304 -8.7110 -38.5024 3.4386 8.0747 6.0706 -0.0000 35.5633 0.9185 -8.2637 6.3647 32.8623 0.0000 -24.3270 18.6554 6.7989 -2.0793 -7.0293 0.0000 0.0000 -20.5054 26.4227 8.0909 23.9366 -0.0000 -0.0000 17.2331 -9.1361 1.6823 -4.1277 0.0000 -0.0000 -20.8654 -25.3886 -4.7542 24.7434 -0.0000 0.0000
 17.6812 35.2726 -23.9006 -105.9354 83.0034 105.2818 -1.0820 -2.1011 -1.3458 2.5949 -1.0357 1.3471 -34.5521 3.1714 19.4918 0.1811 -6.9250 -5.6016 2.8530 0.0000 9.2565 0.1628 9.4641 -0.9902 33.1476 -0.0000 26.2537 3.7654 -14.8974 -8.7445 -38.5019 3.3712 8.0772 6.0937 -0.0000 35.5650 0.9201 -8.2623 6.3767 32.8623 0.0000 -24.3270 18.6897 6.8175 -2.0796 -7.0477 -0.0000 -0.0000 -20.4963 26.4157 8.0851 23.9714 0.0000 0.0000 17.2629 -9.1470 1.6854 -4.1390 -0.0000 -0.0000 -20.8553 -25.3863 -4.7491 24.7123 0.0000 -0.0000
 17.6766 35.2733 -23.8994 -105.9043 83.0059 105.2499 -1.0732 -2.0948 -1.3452 2.5857 -1.0440 1.3359 -34.5566 3.1587 19.4821 0.1883 -6.8951 -5.5781 2.8717 0.0000 9.2291 0.1687 9.4318 -1.0296 33.1476 -0.0000 26.2537 3.7750 -14.9038 -8.7530 -38.5215 3.3567 8.0905 6.1098 -0.0000 35.5154 0.9299 -8.3222 6.3987 32.8623 0.0000 -24.3270 18.6788 6.8306 -2.0790 -7.0414 0.0000 -0.0000 -20.4867 26.4123 8.0779 23.9689 -0.0000 0.0000 17.2555 -9.1353 1.6869 -4.1440 -0.0000 -0.0000 -20.8443 -25.3895 -4.7438 24.7137 -0.0000 0.0000
 17.6723 35.2741 -23.8976 -105.9298 83.0064 105.2750 -1.0722 -2.0997 -1.3554 2.5940 -1.0379 1.3439 -34.5355 3.1557 19.4845 0.1235 -6.8712 -5.5639 2.8846 0.0000 9.2164 0.1779 9.4771 -1.0804 33.1476 -0.0000 26.2537 3.7742 -14.8856 -8.7528 -38.5193 3.3360 8.0889 6.0966 -0.0000 35.5063 0.9260 -8.3169 6.3758 32.8623 0.0000 -24.3270 18.6658 6.8129 -2.0739 -7.0371 -0.0000 0.0000 -20.4840 26.4328 8.0893 23.9532 -0.0000 0.0000 17.2437 -9.1478 1.6891 -4.1354 -0.0000 -0.0000 -20.8312 -25.3699 -4.7386 24.7810 -0.0000 0.0000
 17.6601 35.2782 -23.9084 -105.1008 83.2206 104.4267 -1.3128 -1.9820 -1.2483 2.6798 -0.9920 1.2108 -34.4837 3.2524 19.4119 0.1262 -6.8772 -5.5248 2.8993 0.0000 9.1757 0.1938 9.4873 -1.1756 33.1476 -0.0000 26.2537 3.7917 -14.8528 -8.8204 -38.4915 3.3344 8.0679 6.1096 -0.0000 35.4814 0.9280 -8.3163 6.3902 32.8623 0.0000 -24.3270 18.4956 6.9883 -2.1241 -7.0553 -0.0000 -0.0000 -20.4411 26.4390 8.0139 23.9157 0.0000 -0.0000 16.9794 -8.9292 1.6380 -4.0634 0.0000 0.0000 -20.8468 -25.4203 -4.7758 24.7617 -0.0000 -0.0000
 17.6563 35.2794 -23.9077 -105.0413 83.2437 104.3599 -1.3381 -1.9726 -1.2361 2.6909 -0.9944 1.1936 -34.4870 3.2448 19.4075 0.1180 -6.8406 -5.5139 2.8891 0.0000 9.1523 0.1957 9.5270 -1.1820 33.1476 -0.0000 26.2537 3.7969 -14.8389 -8.8368 -38.4596 3.3160 8.0690 6.1002 -0.0000 35.4716 0.9260 -8.3082 6.3822 32.8623 0.0000 -24.3270 18.4708 6.9996 -2.1202 -7.0588 -0.0000 0.0000 -20.4260 26.4505 8.0191 23.9015 0.0000 -0.0000 16.9479 -8.9010 1.6428 -4.0546 0.0000 0.0000 -20.8310 -25.4461 -4.7378 24.6952 0.0000 -0.0000
 17.6495 35.2809 -23.9042 -105.3407 83.2712 104.6641 -1.3794 -1.9906 -1.2641 2.7086 -1.0083 1.2117 -34.4625 3.2259 19.4070 0.0678 -6.8212 -5.4979 2.9168 0.0000 9.1605 0.1914 9.5122 -1.1579 33.1476 -0.0000 26.2537 3.8067 -14.8250 -8.8237 -38.4475 3.2852 8.0651 6.0979 -0.0000 35.4780 0.9222 -8.2897 6.3707 32.8623 0.0000 -24.3270 18.4056 6.9732 -2.1105 -7.0320 -0.0000 0.0000 -20.4274 26.4477 8.0208 23.9442 0.0000 -0.0000 16.9013 -8.9379 1.6490 -4.0486 -0.0000 -0.0000 -20.8256 -25.4326 -4.7575 24.7235 0.0000 0.0000
 17.6455 35.2810 -23.8996 -105.6078 83.2423 104.9407 -1.3487 -2.0015 -1.3070 2.7121 -1.0367 1.2525 -34.4824 3.1388 19.4094 0.0679 -6.7417 -5.4817 2.8908 0.0000 9.1826 0.1875 9.5248 -1.1331 33.1476 -0.0000 26.2537 3.7808 -14.8078 -8.8264 -38.4005 3.2207 8.0666 6.1088 -0.0000 35.4795 0.9259 -8.2989 6.3892 32.8623 0.0000 -24.3270 18.4040 6.9286 -2.0994 -7.0132 0.0000 -0.0000 -20.4226 26.4434 8.0237 23.9410 -0.0000 -0.0000 16.9282 -8.9840 1.6588 -4.0597 0.0000 0.0000 -20.8191 -25.4326 -4.7390 24.6663 0.0000 -0.0000
 17.6423 35.2812 -23.8964 -105.7146 83.2150 105.0515 -1.3124 -2.0273 -1.3259 2.7140 -1.0271 1.2590 -34.4922 3.1100 19.4122 0.0604 -6.6929 -5.4647 2.8721 0.0000 9.1817 0.1820 9.5331 -1.0987 33.1476 -0.0000 26.2537 3.7658 -14.7675 -8.8475 -38.3877 3.1520 8.0806 6.1282 -0.0000 35.4967 0.9245 -8.3063 6.3735 32.8623 0.0000 -24.3270 18.4204 6.8949 -2.0925 -7.0157 -0.0000 0.0000 -20.4336 26.4326 8.0413 23.7159 -0.0000 0.0000 16.9529 -9.0067 1.6668 -4.0696 0.0000 0.0000 -20.8185 -25.4286 -4.7489 24.7161 0.0000 0.0000
 17.6358 35.2834 -23.8957 -105.7214 83.2718 105.0470 -1.3897 -1.9931 -1.3077 2.7724 -1.0475 1.2311 -34.4683 3.0800 19.3798 0.0624 -6.6517 -5.4484 2.8667 0.0000 9.1379 0.1854 9.5586 -1.1164 33.1476 -0.0000 26.2537 3.7444 -14.7259 -8.8740 -38.2874 3.0879 8.0471 6.1214 -0.0000 35.4592 0.9142 -8.2417 6.3516 32.8623 0.0000 -24.3270 18.3544 6.9187 -2.0845 -7.0157 0.0000 -0.0000 -20.4069 26.4478 8.0209 23.9416 -0.0000 -0.0000 16.8820 -8.9591 1.6731 -4.0618 0.0000 0.0000 -20.7905 -25.4689 -4.7203 24.6915 -0.0000 -0.0000
 17.6334 35.2836 -23.8917 -105.9112 83.2147 105.2501 -1.3226 -2.0098 -1.3498 2.7656 -1.0534 1.2645 -34.4737 3.0066 19.3864 0.0306 -6.5824 -5.4474 2.8558 0.0000 9.0952 0.1892 9.6066 -1.1339 33.1476 -0.0000 26.2537 3.7316 -14.6909 -8.8867 -38.2605 3.0056 8.0534 6.1110 -0.0000 35.4373 0.9036 -8.2248 6.2917 32.8623 0.0000 -24.3270 18.3865 6.8724 -2.0780 -7.0024 -0.0000 0.0000 -20.4034 26.4636 8.0126 23.9336 0.0000 -0.0000 16.9426 -9.0164 1.6795 -4.0841 0.0000 -0.0000 -20.7875 -25.4496 -4.7318 24.7106 0.0000 0.0000
